HIERARCHY
ROOT Hips
{
	OFFSET	0.00	0.00	0.00
	CHANNELS 6 Xposition Yposition Zposition Zrotation Xrotation Yrotation
	JOINT LeftUpLeg
	{
		OFFSET	 0.126116	-0.065224	 0.014019
		CHANNELS 3 Zrotation Xrotation Yrotation
		JOINT LeftLeg
		{
			OFFSET	 0.000000	 0.569914	 0.000000
			CHANNELS 3 Zrotation Xrotation Yrotation
			JOINT LeftFoot
			{
				OFFSET	 0.000000	 0.544423	 0.000000
				CHANNELS 3 Zrotation Xrotation Yrotation
				JOINT LeftToeBase
				{
					OFFSET	 0.000000	 0.207117	 0.000000
					CHANNELS 3 Zrotation Xrotation Yrotation
					End Site
					{
						OFFSET	 0.000000	 0.207117	 0.000000
					}
				}
			}
		}
	}
	JOINT RightUpLeg
	{
		OFFSET	-0.124023	-0.065224	 0.008373
		CHANNELS 3 Zrotation Xrotation Yrotation
		JOINT RightLeg
		{
			OFFSET	 0.000000	 0.570047	 0.000000
			CHANNELS 3 Zrotation Xrotation Yrotation
			JOINT RightFoot
			{
				OFFSET	 0.000000	 0.544354	 0.000000
				CHANNELS 3 Zrotation Xrotation Yrotation
				JOINT RightToeBase
				{
					OFFSET	 0.000000	 0.207540	 0.000000
					CHANNELS 3 Zrotation Xrotation Yrotation
					End Site
					{
						OFFSET	 0.000000	 0.207540	 0.000000
					}
				}
			}
		}
	}
	JOINT Spine
	{
		OFFSET	 0.000184	 0.117403	 0.007763
		CHANNELS 3 Zrotation Xrotation Yrotation
		JOINT Spine1
		{
			OFFSET	 0.000000	 0.137269	 0.000000
			CHANNELS 3 Zrotation Xrotation Yrotation
			JOINT Spine2
			{
				OFFSET	 0.000000	 0.156879	 0.000000
				CHANNELS 3 Zrotation Xrotation Yrotation
				JOINT LeftShoulder
				{
					OFFSET	 0.080501	 0.160143	 0.002496
					CHANNELS 3 Zrotation Xrotation Yrotation
					JOINT LeftArm
					{
						OFFSET	 0.000000	 0.164363	 0.000000
						CHANNELS 3 Zrotation Xrotation Yrotation
						JOINT LeftForeArm
						{
							OFFSET	 0.000000	 0.364576	 0.000000
							CHANNELS 3 Zrotation Xrotation Yrotation
							JOINT LeftHand
							{
								OFFSET	 0.000000	 0.360812	 0.000000
								CHANNELS 3 Zrotation Xrotation Yrotation
								JOINT LeftHandIndex1
								{
									OFFSET	 0.000000	 0.086006	 0.000000
									CHANNELS 3 Zrotation Xrotation Yrotation
									JOINT LeftHandIndex2
									{
										OFFSET	 0.000000	 0.047237	 0.000000
										CHANNELS 3 Zrotation Xrotation Yrotation
										JOINT LeftHandIndex3
										{
											OFFSET	-0.004284	 0.038165	 0.000551
											CHANNELS 3 Zrotation Xrotation Yrotation
											End Site
											{
												OFFSET	-0.004284	 0.038165	 0.000551
											}
										}
									}
								}
							}
						}
					}
				}
				JOINT Neck
				{
					OFFSET	 0.000000	 0.176489	 0.000000
					CHANNELS 3 Zrotation Xrotation Yrotation
					JOINT Head
					{
						OFFSET	 0.000000	 0.077941	 0.001747
						CHANNELS 3 Zrotation Xrotation Yrotation
						End Site
						{
							OFFSET	 0.000000	 0.077941	 0.001747
						}
					}
				}
				JOINT RightShoulder
				{
					OFFSET	-0.080363	 0.159706	-0.000306
					CHANNELS 3 Zrotation Xrotation Yrotation
					JOINT RightArm
					{
						OFFSET	 0.000000	 0.164196	 0.000000
						CHANNELS 3 Zrotation Xrotation Yrotation
						JOINT RightForeArm
						{
							OFFSET	 0.000000	 0.365611	 0.000000
							CHANNELS 3 Zrotation Xrotation Yrotation
							JOINT RightHand
							{
								OFFSET	 0.000000	 0.360648	 0.000000
								CHANNELS 3 Zrotation Xrotation Yrotation
								JOINT RightHandIndex1
								{
									OFFSET	 0.000000	 0.069977	 0.000000
									CHANNELS 3 Zrotation Xrotation Yrotation
									JOINT RightHandIndex2
									{
										OFFSET	 0.000000	 0.052305	 0.000000
										CHANNELS 3 Zrotation Xrotation Yrotation
										JOINT RightHandIndex3
										{
											OFFSET	 0.009002	 0.042196	 0.000782
											CHANNELS 3 Zrotation Xrotation Yrotation
											End Site
											{
												OFFSET	 0.009002	 0.042196	 0.000782
											}
										}
									}
								}
							}
						}
					}
				}
			}
		}
	}
}
MOTION
Frames:    13
Frame Time: 0.03333334
 0.001403	 1.273406	 0.063256	 0.015580	-0.011744	 179.999900	-176.713200	 1.210430	-12.165930	 2.254331	-10.518670	-0.049907	-5.318034	 69.586750	 4.650065	 1.292262	 28.425850	-2.713146	 176.709900	 1.692667	 12.184630	-2.298189	-11.036830	 0.044177	 5.380982	 69.726540	-4.744260	-1.288183	 28.361890	 2.710176	 0.047615	 2.705514	-2.907832	 0.008073	 3.690150	-0.000993	-0.003816	-4.717757	-0.004158	-101.478000	 1.740677	 90.353390	 65.073650	 37.858850	-54.404110	 3.022329	 3.736763	-0.015814	-32.319430	 3.985144	-1.965975	-6.580301	 5.266122	 0.000000	 0.000000	 0.000000	 0.000000	 0.000000	 0.000000	 0.000000	 0.089846	-3.783161	 0.005928	 0.000015	 1.263154	-0.001370	 101.796200	-0.213315	-89.955440	-2.154362	 60.348630	-6.147793	-11.584130	 15.272840	 4.222847	-13.275310	-8.796999	 1.899801	 15.208500	 5.323790	 0.000000	 0.000000	 0.000000	 0.000000	 0.000000	 0.000000	 0.000000
 0.001400	 1.275512	 0.063117	 0.015595	-0.011746	 179.999900	-176.622500	 1.209387	-13.153290	 2.254344	-10.518730	-0.049902	-5.237999	 69.164330	 4.585556	 1.292262	 28.425850	-2.713146	 176.614900	 1.690888	 13.172410	-2.298179	-11.036780	 0.044183	 5.294681	 69.308040	-4.676673	-1.288183	 28.361890	 2.710176	 0.316688	 2.687352	-8.622670	 0.008088	 3.690143	-0.000993	-0.003823	-4.717750	-0.004160	-101.478000	 1.740666	 90.353390	 64.843640	 37.663670	-54.121130	 5.491588	 3.792355	-2.813268	-32.434530	-1.800275	-4.895541	-6.580301	 5.266122	 0.000000	 0.000000	 0.000000	 0.000000	 0.000000	 0.000000	 0.000000	 0.089846	-3.783161	 0.005928	 0.000015	 1.263154	-0.001370	 101.796200	-0.213315	-89.955440	 0.653052	 55.485940	-8.329934	-21.373240	 24.189880	 10.358760	-12.223550	-19.534210	 1.255864	 15.208500	 5.323790	 0.000000	 0.000000	 0.000000	 0.000000	 0.000000	 0.000000	 0.000000
 0.001377	 1.290114	 0.062151	 0.015582	-0.011746	 179.999900	-175.995100	 1.158539	-20.014120	 2.254300	-10.518540	-0.049917	-4.749754	 66.237350	 4.237814	 1.292262	 28.425850	-2.713146	 175.958000	 1.633547	 20.035420	-2.298160	-11.036680	 0.044181	 4.766869	 66.410040	-4.309291	-1.288183	 28.361890	 2.710176	-0.356042	 2.682424	 5.664373	 0.008086	 3.690148	-0.000993	-0.003822	-4.717761	-0.004154	-101.478000	 1.740670	 90.353390	 60.402990	 34.966600	-48.765630	 21.322080	 3.980422	-20.783910	-32.403730	 36.345340	-27.822670	-6.580301	 5.266122	 0.000000	 0.000000	 0.000000	 0.000000	 0.000000	 0.000000	 0.000000	 0.089846	-3.783161	 0.005928	 0.000015	 1.263154	-0.001370	 101.796200	-0.213313	-89.955440	-65.418440	 22.001590	 56.007260	-92.714810	 41.346340	 74.860230	 55.622870	-19.387500	 6.604842	 15.208500	 5.323790	 0.000000	 0.000000	 0.000000	 0.000000	 0.000000	 0.000000	 0.000000
 0.001360	 1.301214	 0.061418	 0.015593	-0.011744	 179.999900	-175.523100	 1.069631	-25.246600	 2.254296	-10.518520	-0.049920	-4.432276	 64.015490	 4.065878	 1.292262	 28.425850	-2.713146	 175.464200	 1.537303	 25.268270	-2.298160	-11.036680	 0.044184	 4.422965	 64.211750	-4.123313	-1.288183	 28.361890	 2.710176	 0.198244	 2.698667	-6.102169	 0.008086	 3.690146	-0.000993	-0.003820	-4.717752	-0.004157	-101.478000	 1.740670	 90.353390	 63.668020	 35.928460	-52.672410	 1.787784	 3.735111	 1.396824	-33.134430	 32.022140	 12.289860	-6.580301	 5.266122	 0.000000	 0.000000	 0.000000	 0.000000	 0.000000	 0.000000	 0.000000	 0.089846	-3.783161	 0.005928	 0.000015	 1.263154	-0.001370	 101.796200	-0.213312	-89.955450	-1.972322	 62.298680	-6.475365	-2.652361	 4.060993	-0.432713	-25.765860	 24.987210	-24.188740	 15.208500	 5.323790	 0.000000	 0.000000	 0.000000	 0.000000	 0.000000	 0.000000	 0.000000
 0.001360	 1.301214	 0.061418	 0.015587	-0.011742	 179.999900	-175.523200	 1.069538	-25.246510	 2.254252	-10.518320	-0.049926	-4.432058	 64.015410	 4.065654	 1.292262	 28.425850	-2.713146	 175.464300	 1.537210	 25.268280	-2.298106	-11.036430	 0.044191	 4.422916	 64.211610	-4.123302	-1.288183	 28.361890	 2.710176	 0.198244	 2.698667	-6.102169	 0.008079	 3.690316	-0.000993	-0.003820	-4.717886	-0.004099	-101.478000	 1.740671	 90.353390	 65.237120	 36.564430	-53.741580	 1.786135	 3.731808	 1.396896	-33.392770	 29.222920	 11.691190	-6.580301	 5.266122	 0.000000	 0.000000	 0.000000	 0.000000	 0.000000	 0.000000	 0.000000	 0.089846	-3.783161	 0.005928	 0.000015	 1.263154	-0.001370	 101.796200	-0.213313	-89.955440	 18.259150	 56.645690	-22.168290	-2.133604	 3.269075	-2.291589	-50.970300	 22.721250	-43.793490	 15.208500	 5.323790	 0.000000	 0.000000	 0.000000	 0.000000	 0.000000	 0.000000	 0.000000
 0.001360	 1.301214	 0.061418	 0.015593	-0.011744	 179.999900	-175.523100	 1.069631	-25.246600	 2.254296	-10.518520	-0.049920	-4.432276	 64.015490	 4.065878	 1.292262	 28.425850	-2.713146	 175.464200	 1.537303	 25.268270	-2.298160	-11.036680	 0.044184	 4.422965	 64.211750	-4.123313	-1.288183	 28.361890	 2.710176	 0.198244	 2.698667	-6.102169	 0.008086	 3.690146	-0.000993	-0.003820	-4.717752	-0.004157	-101.478000	 1.740670	 90.353390	 63.755410	 35.964370	-52.724750	 1.787930	 3.735446	 1.396785	-33.149130	 31.844290	 12.250880	-6.580301	 5.266122	 0.000000	 0.000000	 0.000000	 0.000000	 0.000000	 0.000000	 0.000000	 0.089846	-3.783161	 0.005928	 0.000015	 1.263154	-0.001370	 101.796200	-0.213312	-89.955450	-0.229463	 61.993090	-7.957581	-2.607952	 3.993221	-0.570274	-27.603170	 24.966310	-25.597580	 15.208500	 5.323790	 0.000000	 0.000000	 0.000000	 0.000000	 0.000000	 0.000000	 0.000000
 0.001360	 1.301214	 0.061418	 0.015593	-0.011744	 179.999900	-175.523100	 1.069631	-25.246600	 2.254296	-10.518520	-0.049920	-4.432276	 64.015490	 4.065878	 1.292262	 28.425850	-2.713146	 175.464200	 1.537303	 25.268270	-2.298160	-11.036680	 0.044184	 4.422965	 64.211750	-4.123313	-1.288183	 28.361890	 2.710176	 0.198244	 2.698667	-6.102169	 0.008086	 3.690146	-0.000993	-0.003820	-4.717752	-0.004157	-101.478000	 1.740670	 90.353390	 63.502600	 35.860620	-52.579380	 1.788176	 3.735853	 1.396768	-33.106530	 32.374480	 12.367370	-6.580301	 5.266122	 0.000000	 0.000000	 0.000000	 0.000000	 0.000000	 0.000000	 0.000000	 0.089846	-3.783161	 0.005928	 0.000015	 1.263154	-0.001370	 101.796200	-0.213312	-89.955450	-5.537114	 62.838660	-3.405495	-2.743513	 4.200134	-0.145484	-22.033330	 24.973920	-21.263370	 15.208500	 5.323790	 0.000000	 0.000000	 0.000000	 0.000000	 0.000000	 0.000000	 0.000000
 0.001360	 1.301214	 0.061418	 0.015593	-0.011744	 179.999900	-175.523100	 1.069631	-25.246600	 2.254296	-10.518520	-0.049920	-4.432276	 64.015490	 4.065878	 1.292262	 28.425850	-2.713146	 175.464200	 1.537303	 25.268270	-2.298160	-11.036680	 0.044184	 4.422965	 64.211750	-4.123313	-1.288183	 28.361890	 2.710176	 0.198244	 2.698667	-6.102169	 0.008086	 3.690146	-0.000993	-0.003820	-4.717752	-0.004157	-101.478000	 1.740670	 90.353390	 63.340420	 35.794250	-52.500020	 1.788248	 3.736097	 1.396801	-33.077450	 32.758510	 12.452230	-6.580301	 5.266122	 0.000000	 0.000000	 0.000000	 0.000000	 0.000000	 0.000000	 0.000000	 0.089846	-3.783161	 0.005928	 0.000015	 1.263154	-0.001370	 101.796200	-0.213312	-89.955450	-2.205439	 57.058700	-6.288403	-11.014930	 16.337800	 1.672428	-13.265630	 19.046470	-19.567860	 15.208500	 5.323790	 0.000000	 0.000000	 0.000000	 0.000000	 0.000000	 0.000000	 0.000000
 0.001360	 1.301214	 0.061418	 0.015593	-0.011744	 179.999900	-175.523100	 1.069631	-25.246600	 2.254296	-10.518520	-0.049920	-4.432276	 64.015490	 4.065878	 1.292262	 28.425850	-2.713146	 175.464200	 1.537303	 25.268270	-2.298160	-11.036680	 0.044184	 4.422965	 64.211750	-4.123313	-1.288183	 28.361890	 2.710176	 0.198244	 2.698667	-6.102169	 0.008086	 3.690146	-0.000993	-0.003820	-4.717752	-0.004157	-101.478000	 1.740670	 90.353390	 63.242580	 35.754480	-52.464170	 1.788013	 3.735608	 1.396773	-33.058640	 33.026520	 12.512700	-6.580301	 5.266122	 0.000000	 0.000000	 0.000000	 0.000000	 0.000000	 0.000000	 0.000000	 0.089846	-3.783161	 0.005928	 0.000015	 1.263154	-0.001370	 101.796200	-0.213312	-89.955450	 0.090986	 52.489470	-8.065948	-18.004560	 25.370840	 4.426567	-7.280910	 14.291960	-17.366060	 15.208500	 5.323790	 0.000000	 0.000000	 0.000000	 0.000000	 0.000000	 0.000000	 0.000000
 0.001360	 1.301214	 0.061418	 0.015593	-0.011744	 179.999900	-175.523100	 1.069631	-25.246600	 2.254296	-10.518520	-0.049920	-4.432276	 64.015490	 4.065878	 1.292262	 28.425850	-2.713146	 175.464200	 1.537303	 25.268270	-2.298160	-11.036680	 0.044184	 4.422965	 64.211750	-4.123313	-1.288183	 28.361890	 2.710176	 0.487338	 2.661718	-12.278560	 0.008086	 3.690146	-0.000993	-0.003820	-4.717752	-0.004157	-101.478000	 1.740670	 90.353390	 63.242580	 35.754480	-52.464170	 4.512867	 3.797674	 4.127154	-33.058420	 37.038860	 15.431490	-6.580301	 5.266122	 0.000000	 0.000000	 0.000000	 0.000000	 0.000000	 0.000000	 0.000000	 0.089846	-3.783161	 0.005928	 0.000015	 1.263154	-0.001370	 101.796200	-0.213312	-89.955450	 0.090986	 52.489470	-8.065948	-20.999870	 25.130650	 2.795097	-6.923849	 18.289640	-20.385220	 15.208500	 5.323790	 0.000000	 0.000000	 0.000000	 0.000000	 0.000000	 0.000000	 0.000000
 0.001360	 1.301214	 0.061418	 0.015593	-0.011744	 179.999900	-175.523100	 1.069631	-25.246600	 2.254296	-10.518520	-0.049920	-4.432276	 64.015490	 4.065878	 1.292262	 28.425850	-2.713146	 175.464200	 1.537303	 25.268270	-2.298160	-11.036680	 0.044184	 4.422965	 64.211750	-4.123313	-1.288183	 28.361890	 2.710176	 0.554473	 2.648556	-13.727710	 0.008086	 3.690146	-0.000993	-0.003820	-4.717752	-0.004157	-101.478000	 1.740670	 90.353390	 63.242580	 35.754480	-52.464170	 5.167432	 3.811301	 4.782577	-33.058370	 37.838400	 16.113010	-6.580301	 5.266122	 0.000000	 0.000000	 0.000000	 0.000000	 0.000000	 0.000000	 0.000000	 0.089846	-3.783161	 0.005928	 0.000015	 1.263154	-0.001370	 101.796200	-0.213312	-89.955450	 0.090986	 52.489470	-8.065948	-21.717470	 25.063990	 2.400661	-6.850836	 19.086200	-21.090160	 15.208500	 5.323790	 0.000000	 0.000000	 0.000000	 0.000000	 0.000000	 0.000000	 0.000000
 0.001360	 1.301214	 0.061418	 0.015593	-0.011744	 179.999900	-175.523100	 1.069631	-25.246600	 2.254296	-10.518520	-0.049920	-4.432276	 64.015490	 4.065878	 1.292262	 28.425850	-2.713146	 175.464200	 1.537303	 25.268270	-2.298160	-11.036680	 0.044184	 4.422965	 64.211750	-4.123313	-1.288183	 28.361890	 2.710176	 0.590822	 2.640691	-14.515480	 0.008086	 3.690146	-0.000993	-0.003820	-4.717752	-0.004157	-101.478000	 1.740670	 90.353390	 63.242580	 35.754480	-52.464170	 5.526307	 3.818588	 5.141835	-33.058350	 38.248120	 16.483460	-6.580301	 5.266122	 0.000000	 0.000000	 0.000000	 0.000000	 0.000000	 0.000000	 0.000000	 0.089846	-3.783161	 0.005928	 0.000015	 1.263154	-0.001370	 101.796200	-0.213312	-89.955450	 0.090986	 52.489470	-8.065948	-22.110580	 25.025980	 2.183886	-6.813129	 19.494340	-21.473060	 15.208500	 5.323790	 0.000000	 0.000000	 0.000000	 0.000000	 0.000000	 0.000000	 0.000000
 0.001360	 1.301214	 0.061418	 0.015593	-0.011744	 179.999900	-175.523100	 1.069631	-25.246600	 2.254296	-10.518520	-0.049920	-4.432276	 64.015490	 4.065878	 1.292262	 28.425850	-2.713146	 175.464200	 1.537303	 25.268270	-2.298160	-11.036680	 0.044184	 4.422965	 64.211750	-4.123313	-1.288183	 28.361890	 2.710176	 0.198244	 2.698667	-6.102169	 0.008086	 3.690146	-0.000993	-0.003820	-4.717752	-0.004157	-101.478000	 1.740670	 90.353390	 63.242580	 35.754480	-52.464170	 1.788013	 3.735608	 1.396773	-33.058640	 33.026520	 12.512700	-6.580301	 5.266122	 0.000000	 0.000000	 0.000000	 0.000000	 0.000000	 0.000000	 0.000000	 0.089846	-3.783161	 0.005928	 0.000015	 1.263154	-0.001370	 101.796200	-0.213312	-89.955450	 0.090986	 52.489470	-8.065948	-18.004560	 25.370840	 4.426567	-7.280910	 14.291960	-17.366060	 15.208500	 5.323790	 0.000000	 0.000000	 0.000000	 0.000000	 0.000000	 0.000000	 0.000000
